<svg id="Capa_1" data-name="Capa 1" xmlns="http://www.w3.org/2000/svg" xmlns:xlink="http://www.w3.org/1999/xlink" viewBox="0 0 84.07 30"><defs><style>.cls-1{fill:none;}.cls-2{clip-path:url(#clip-path);}.cls-3{font-size:11.04px;font-family:Calibri;}.cls-4,.cls-6,.cls-9{fill:#2f348b;}.cls-10,.cls-11,.cls-4,.cls-7,.cls-9{fill-rule:evenodd;}.cls-10,.cls-5,.cls-8{fill:#2aaae2;}.cls-7{fill:#98ceec;}.cls-8{stroke:#2aaae2;}.cls-8,.cls-9{stroke-miterlimit:10;stroke-width:0.16px;}.cls-9{stroke:#2f348b;}.cls-11{fill:#fff;}</style><clipPath id="clip-path" transform="translate(0.07 -0.09)"><rect class="cls-1" x="-0.06" y="0.03" width="84" height="30"/></clipPath></defs><g class="cls-2"><text class="cls-3" transform="translate(0 10.37)"> </text></g><path class="cls-4" d="M78.62,8.29h0l.25,0v.38a2.8,2.8,0,0,0-.73.1,1.25,1.25,0,0,0-.51.28,3.54,3.54,0,0,0-.39.38,2.41,2.41,0,0,0-.23.36,1.74,1.74,0,0,0-.13.36,3,3,0,0,0,0,.42,1.89,1.89,0,0,0,.06.47,1.79,1.79,0,0,0,.19.46,2.24,2.24,0,0,0,.31.38s0,0,.07.06a1.81,1.81,0,0,1-.65-.66,1.23,1.23,0,0,1-.19-.44,1.84,1.84,0,0,1-.06-.47,1.5,1.5,0,0,1,0-.42,1.11,1.11,0,0,1,.13-.36A2.41,2.41,0,0,1,77,9.21a3.27,3.27,0,0,1,.37-.38,1.46,1.46,0,0,1,.54-.28,2.53,2.53,0,0,1,.71-.1Z" transform="translate(0.07 -0.09)"/><path class="cls-4" d="M78.9,12.4v.38h-.25a3.36,3.36,0,0,1-.63-.06,5.77,5.77,0,0,1-.58-.22,3.13,3.13,0,0,1-.46-.32l.18.12a2.93,2.93,0,0,0,.59.2,2.11,2.11,0,0,0,.62.08h.25V12.4a1.32,1.32,0,0,0,.28,0Z" transform="translate(0.07 -0.09)"/><polygon class="cls-4" points="73.94 8.18 74.21 8.18 74.21 12.69 73.96 12.69 73.59 12.69 73.59 12.49 73.69 12.49 73.94 12.49 73.94 8.18"/><path class="cls-4" d="M68.88,12.78h-.47v-.2h.43a3.13,3.13,0,0,0,.44,0,1.8,1.8,0,0,0,.44-.12,3.11,3.11,0,0,0,.4-.22,3.07,3.07,0,0,0,.35-.28c.1-.1.19-.22.29-.34A2.25,2.25,0,0,0,71,11.2a1.73,1.73,0,0,0,.14-.42,2.06,2.06,0,0,0,0-.45,2.2,2.2,0,0,0,0-.44A1.73,1.73,0,0,0,71,9.47a1.41,1.41,0,0,0-.21-.38,1.54,1.54,0,0,0-.29-.34.89.89,0,0,0-.13-.14.1.1,0,0,0,.07,0c.12.1.23.18.35.3s.19.22.29.34a3.41,3.41,0,0,1,.21.38,3.38,3.38,0,0,1,.13.42,3.28,3.28,0,0,1,0,.46,3.13,3.13,0,0,1,0,.43,2.08,2.08,0,0,1-.13.42,3.41,3.41,0,0,1-.21.38,1.87,1.87,0,0,1-.29.34,1.66,1.66,0,0,1-.35.28,1.89,1.89,0,0,1-.4.22,1.66,1.66,0,0,1-.42.12,3.73,3.73,0,0,1-.46,0Z" transform="translate(0.07 -0.09)"/><polygon class="cls-4" points="65.98 12.31 66.25 12.31 66.25 12.69 66.02 12.69 64.77 12.69 64.77 12.49 65.73 12.49 65.98 12.49 65.98 12.31"/><polygon class="cls-4" points="66.04 9.32 66.23 9.32 66.37 9.68 65.41 9.68 65.41 12.11 65.14 12.11 65.14 9.48 66.1 9.48 66.04 9.32"/><polygon class="cls-4" points="65.41 8.56 65.41 9.1 65.14 9.1 65.14 8.36 65.98 8.36 65.98 8.18 66.25 8.18 66.25 8.56 65.41 8.56"/><path class="cls-4" d="M61.36,8.55a1.8,1.8,0,0,1,.37.28,3.93,3.93,0,0,1,.31.38c.07.16.13.3.19.46a1.7,1.7,0,0,1,.06.46,1.79,1.79,0,0,1,0,.36,2,2,0,0,1-.1.35l-.17.3a1.23,1.23,0,0,1-.23.28,1.44,1.44,0,0,1-.27.22,1.35,1.35,0,0,1-.33.18,1.16,1.16,0,0,1-.34.12,2.6,2.6,0,0,1-.37,0v.8h-.63v-.2h.34v-.8a2.1,2.1,0,0,0,.37,0,1.27,1.27,0,0,0,.36-.12l.31-.18a1.58,1.58,0,0,0,.29-.22l.23-.28a1.11,1.11,0,0,0,.15-.31,1.7,1.7,0,0,0,.12-.34,2.2,2.2,0,0,0,0-.36,2,2,0,0,0-.08-.48A1.68,1.68,0,0,0,61.75,9a1.37,1.37,0,0,0-.29-.38.35.35,0,0,0-.1-.08Z" transform="translate(0.07 -0.09)"/><path class="cls-4" d="M56.62,8.55a0,0,0,0,1,0,0,1.59,1.59,0,0,1,.36.28c.1.1.19.22.29.34a4,4,0,0,1,.23.42,3.09,3.09,0,0,1,.14.46,2.24,2.24,0,0,1,.05.46,2.14,2.14,0,0,1-.05.45,2.44,2.44,0,0,1-.37.86,1.54,1.54,0,0,1-.29.34,1.69,1.69,0,0,1-.36.3,2,2,0,0,1-.41.22,1.83,1.83,0,0,1-.46.12,1.8,1.8,0,0,1-.48.06h-.23a1.91,1.91,0,0,1-.48-.06,1.59,1.59,0,0,1-.44-.12,2.78,2.78,0,0,1-.42-.22c-.08-.06-.16-.1-.23-.16l.36.18a2.09,2.09,0,0,0,.46.12,1.83,1.83,0,0,0,.46,0H55a1.91,1.91,0,0,0,.48,0,1.69,1.69,0,0,0,.45-.14,3.23,3.23,0,0,0,.42-.2,2.43,2.43,0,0,0,.34-.3,2,2,0,0,0,.31-.34,2.74,2.74,0,0,0,.21-.42,2.85,2.85,0,0,0,.16-.44,3,3,0,0,0,0-.45,3.88,3.88,0,0,0,0-.48,3.89,3.89,0,0,0-.16-.44A1.22,1.22,0,0,0,57,9a1.39,1.39,0,0,0-.29-.36.24.24,0,0,0-.09-.08Z" transform="translate(0.07 -0.09)"/><path class="cls-5" d="M38.81,7.67a2,2,0,0,1,.48.06,2,2,0,0,1,.46.14,3.73,3.73,0,0,1,.4.2,2.57,2.57,0,0,1,.37.28,2.84,2.84,0,0,1,.29.36l.23.4a4,4,0,0,1,.13.46,2,2,0,0,1,0,.48,1.79,1.79,0,0,1,0,.46,3.52,3.52,0,0,1-.13.43l-.23.4a2.54,2.54,0,0,1-.29.36,2.57,2.57,0,0,1-.37.28,2,2,0,0,1-.4.22,4,4,0,0,1-.46.14,3.88,3.88,0,0,1-.48,0h-.25a4.23,4.23,0,0,1-.48,0,3.73,3.73,0,0,1-.44-.14,2.83,2.83,0,0,1-.43-.2,2.43,2.43,0,0,1-.34-.3,2.67,2.67,0,0,1-.31-.36,3.81,3.81,0,0,1-.23-.4,1.76,1.76,0,0,1-.13-.43,1.82,1.82,0,0,1-.06-.46,2,2,0,0,1,.06-.48,1.84,1.84,0,0,1,.13-.44,2.91,2.91,0,0,1,.23-.42,1.54,1.54,0,0,1,.29-.34,2.6,2.6,0,0,1,.36-.3,2.83,2.83,0,0,1,.43-.2,1.87,1.87,0,0,1,.44-.14,2.1,2.1,0,0,1,.48-.06Zm-.14.38a2.72,2.72,0,0,0-.71.16,2.08,2.08,0,0,0-.61.42,2,2,0,0,0-.42.66,1.84,1.84,0,0,0-.16.76,2,2,0,0,0,.6,1.41,2.29,2.29,0,0,0,.61.4,1.75,1.75,0,0,0,.71.16,2.35,2.35,0,0,0,.68-.12,1.53,1.53,0,0,0,.5-.32c.13-.16.26-.3.36-.44a1.28,1.28,0,0,0,.21-.37,1.27,1.27,0,0,0,.12-.36,2.2,2.2,0,0,0,0-.36,1.87,1.87,0,0,0-.16-.78A1.8,1.8,0,0,0,40,8.61a2.36,2.36,0,0,0-.59-.4,2.27,2.27,0,0,0-.72-.16Zm4.9-.26H44a1.91,1.91,0,0,1,.48.06,1.75,1.75,0,0,1,.44.2,1.4,1.4,0,0,1,.38.3,1.2,1.2,0,0,1,.29.38,1.2,1.2,0,0,1,.19.44,1.34,1.34,0,0,1,.08.48,2.33,2.33,0,0,1-.09.58,3.29,3.29,0,0,1-.29.52,1.69,1.69,0,0,1-.44.41,1.3,1.3,0,0,1-.52.24l1.13.9h-.79L44,11.62v.68h-.64V7.79ZM44,11.1a.53.53,0,0,0,.17,0l.15,0a1.26,1.26,0,0,0,.27-.18,1.25,1.25,0,0,0,.31-.27.91.91,0,0,0,.25-.4,1.35,1.35,0,0,0,.08-.52,1.53,1.53,0,0,0-.08-.54,1,1,0,0,0-.25-.4,2.25,2.25,0,0,0-.31-.26.71.71,0,0,0-.27-.16l-.15-.06a.53.53,0,0,0-.17,0Zm5,1.2h-.38V8.15h-.66V7.79h2v.36h-.67V12.3Zm5.69-4.63a1.86,1.86,0,0,1,.48.06,2,2,0,0,1,.46.14,2.49,2.49,0,0,1,.4.2,2.57,2.57,0,0,1,.37.28,4.1,4.1,0,0,1,.29.36l.23.4a4,4,0,0,1,.13.46,2,2,0,0,1,.06.48,1.82,1.82,0,0,1-.06.46,3.52,3.52,0,0,1-.13.43,2,2,0,0,1-.23.4,2,2,0,0,1-.29.36A2.57,2.57,0,0,1,56,12a1.56,1.56,0,0,1-.4.22,4,4,0,0,1-.46.14,3.58,3.58,0,0,1-.48,0h-.25a3.57,3.57,0,0,1-.46,0,3.5,3.5,0,0,1-.46-.14,2,2,0,0,1-.41-.2,2.6,2.6,0,0,1-.36-.3,2.67,2.67,0,0,1-.31-.36,2.52,2.52,0,0,1-.21-.4,1.47,1.47,0,0,1-.15-.43,1.79,1.79,0,0,1,0-.46,2,2,0,0,1,0-.48,2.44,2.44,0,0,1,.13-.44,2.91,2.91,0,0,1,.23-.42,1.54,1.54,0,0,1,.29-.34,2.6,2.6,0,0,1,.36-.3,2.83,2.83,0,0,1,.43-.2A1.88,1.88,0,0,1,54,7.73a1.82,1.82,0,0,1,.46-.06Zm-.12.38a2.61,2.61,0,0,0-.73.16,2.08,2.08,0,0,0-.61.42,2,2,0,0,0-.42.66,1.84,1.84,0,0,0-.16.76,1.93,1.93,0,0,0,.16.77,1.73,1.73,0,0,0,.46.64,2.2,2.2,0,0,0,.59.4,1.75,1.75,0,0,0,.71.16,2.35,2.35,0,0,0,.68-.12,1.35,1.35,0,0,0,.5-.32,4.13,4.13,0,0,0,.36-.44,2.2,2.2,0,0,0,.23-.37,2.42,2.42,0,0,0,.1-.36,1.11,1.11,0,0,0,0-.36,1.6,1.6,0,0,0-.16-.78,2,2,0,0,0-.44-.66,2.91,2.91,0,0,0-.61-.4,2.16,2.16,0,0,0-.7-.16Zm4.88-.26h.39a1.91,1.91,0,0,1,.48.06,1.75,1.75,0,0,1,.44.2,1.4,1.4,0,0,1,.38.3,1.66,1.66,0,0,1,.31.38,2.78,2.78,0,0,1,.19.44,2,2,0,0,1,.06.48,2.2,2.2,0,0,1,0,.36,1.69,1.69,0,0,1-.09.34c-.06.12-.12.22-.18.32a.77.77,0,0,1-.23.25,1.25,1.25,0,0,1-.27.24l-.32.18-.37.12a2.06,2.06,0,0,1-.36,0v.82h-.64V7.79Zm.39,3.31a.53.53,0,0,0,.17,0l.15,0a.91.91,0,0,0,.27-.18,1.25,1.25,0,0,0,.31-.27.91.91,0,0,0,.25-.4A1.35,1.35,0,0,0,61,9.65,1.53,1.53,0,0,0,61,9.11a1,1,0,0,0-.25-.4,1.78,1.78,0,0,0-.31-.26.71.71,0,0,0-.27-.16L60,8.23a.53.53,0,0,0-.17,0Zm4.92-2.95v.76h.84l.14.36h-1v2.65h.86v.38H64.11v-3H63.9l-.12-.36h.33V7.79h1.48v.36Zm3.55,4.15h-.46V7.79h.69a3.58,3.58,0,0,1,.48,0,3,3,0,0,1,.42.14,1.44,1.44,0,0,1,.39.2,4.19,4.19,0,0,1,.34.28,1.75,1.75,0,0,1,.29.34,1.54,1.54,0,0,1,.21.4,1.73,1.73,0,0,1,.14.42,1.56,1.56,0,0,1,.06.44,1.7,1.7,0,0,1-.06.46,1.66,1.66,0,0,1-.14.41,1.19,1.19,0,0,1-.21.38,2.68,2.68,0,0,1-.27.34l-.34.28a3.86,3.86,0,0,1-.41.2,4.43,4.43,0,0,1-.44.14,3.57,3.57,0,0,1-.46,0Zm.15-.38a2.62,2.62,0,0,0,.62-.12,1.41,1.41,0,0,0,.46-.3l.35-.4c.09-.14.15-.26.21-.37a2.9,2.9,0,0,0,.09-.34,2,2,0,0,0,0-.34,2.22,2.22,0,0,0,0-.38c0-.14-.07-.26-.11-.36s-.12-.22-.18-.32a1.61,1.61,0,0,0-.24-.28,1.86,1.86,0,0,0-.27-.22A1.19,1.19,0,0,0,69,8.31a1.66,1.66,0,0,0-.29-.1,1.37,1.37,0,0,0-.31,0Zm4.75-4.13h.38V12.3h-.63V7.79Zm5.15,4.13v.36H78.1a1.68,1.68,0,0,1-.64-.06,2.1,2.1,0,0,1-.59-.22,2.76,2.76,0,0,1-.5-.34A2.08,2.08,0,0,1,76,11.2a2.32,2.32,0,0,1-.25-.53,2.46,2.46,0,0,1-.07-.6,2.51,2.51,0,0,1,.07-.62A4.16,4.16,0,0,1,76,8.91a2.16,2.16,0,0,1,.39-.46,2.87,2.87,0,0,1,.5-.36,2.1,2.1,0,0,1,.59-.22,2.25,2.25,0,0,1,.64-.08h.23v.38a2,2,0,0,0-.71.1,1.27,1.27,0,0,0-.54.28,3.18,3.18,0,0,0-.37.36,2.41,2.41,0,0,0-.23.36,1.55,1.55,0,0,0-.13.38,1.43,1.43,0,0,0,0,.42,2,2,0,0,0,.06.48,1.35,1.35,0,0,0,.19.43,2,2,0,0,0,.31.4,3.47,3.47,0,0,0,.4.3,2.3,2.3,0,0,0,.5.18,2.53,2.53,0,0,0,.56.06Zm2.44-2.65h-.19l-.14-.36h.33V8.53a.8.8,0,0,1,.06-.3A.56.56,0,0,1,81,8a.72.72,0,0,1,.25-.18.75.75,0,0,1,.31-.06h.25a.52.52,0,0,1,.17,0,.42.42,0,0,1,.15,0l.12.06.11.1a.53.53,0,0,1,.1.12.32.32,0,0,1,.08.14s0,.08,0,.14,0,.1,0,.16V12.3H82v-3H81.4v3h-.63ZM82,8.91V8.53a.44.44,0,0,0,0-.16s-.06-.08-.1-.14l-.07-.06a.12.12,0,0,0-.18,0,.22.22,0,0,0-.07.06c-.06,0-.08.08-.1.12a.58.58,0,0,0,0,.18v.38Z" transform="translate(0.07 -0.09)"/><path class="cls-6" d="M39.67,20.42a1.94,1.94,0,0,1-.57,1.46,2.12,2.12,0,0,1-1.54.56,4.38,4.38,0,0,1-.75-.06,2.9,2.9,0,0,1-.63-.18v-1a2.18,2.18,0,0,0,.69.3,2.28,2.28,0,0,0,.69.12,1.24,1.24,0,0,0,.86-.28,1.12,1.12,0,0,0,.41-.92c0-.32-.23-.64-.69-1s-.85-.55-1.27-.85a1.67,1.67,0,0,1-.69-1.3,1.55,1.55,0,0,1,.5-1.16,1.91,1.91,0,0,1,1.3-.46,3.13,3.13,0,0,1,.6.06,1.38,1.38,0,0,1,.5.18v1a3.86,3.86,0,0,0-.46-.32,1.48,1.48,0,0,0-.64-.14,1.13,1.13,0,0,0-.69.2.7.7,0,0,0-.29.6c0,.28.23.58.69.88.81.56,1.25.86,1.29.9a1.81,1.81,0,0,1,.69,1.35Zm4.69,1.78h-.82a10.36,10.36,0,0,0-.43-1.64h-2V22.2h-.85V15.91a8.44,8.44,0,0,1,2.88,2.88,8.31,8.31,0,0,1,1.23,3.41Zm-1.63-2.44a6.26,6.26,0,0,0-.64-1,9.18,9.18,0,0,0-1-1.16v2.19Zm6.4,2.44H48.3V20.74a3.61,3.61,0,0,0-.94-2.33,4.09,4.09,0,0,0-1.71-1.3V22.2h-.87V15.91a5,5,0,0,1,2.12.88,5.12,5.12,0,0,1,1.4,1.46V15.91h.83Zm9.93-.58a3.93,3.93,0,0,1-1.06.6,3.71,3.71,0,0,1-1.23.22,3.41,3.41,0,0,1-2.48-1,3.21,3.21,0,0,1-1-2.41,3.17,3.17,0,0,1,1-2.4,3.41,3.41,0,0,1,2.48-1,3.53,3.53,0,0,1,2.29.84v1.26a2.48,2.48,0,0,0-1-.94,2.56,2.56,0,0,0-1.33-.34,2.61,2.61,0,0,0-1.88.74,2.5,2.5,0,0,0,0,3.65,2.61,2.61,0,0,0,1.88.74,2.56,2.56,0,0,0,1.33-.34,2.62,2.62,0,0,0,1-.94Zm4.78.58H63a8.58,8.58,0,0,0-.43-1.64h-2V22.2h-.87V15.91a8.44,8.44,0,0,1,2.88,2.88,7.91,7.91,0,0,1,1.23,3.41Zm-1.63-2.44a6.19,6.19,0,0,0-.63-1,10,10,0,0,0-1-1.16v2.19Zm5.71,2.68a3.85,3.85,0,0,1-1.77-1.18,5.27,5.27,0,0,1-.91-1.74,1.68,1.68,0,0,0,1-.43,1.25,1.25,0,0,0,0-1.9,1.64,1.64,0,0,0-1.11-.4V22.2h-.87V15.91a4.54,4.54,0,0,1,.49,0h.38a2.38,2.38,0,0,1,1.69.66,2,2,0,0,1,.71,1.56,1.91,1.91,0,0,1-.33,1.12,2.46,2.46,0,0,1-.88.77A3.74,3.74,0,0,0,67,21a2.57,2.57,0,0,0,.89.62Zm3.18-.24H68.32V15.91h.86v5.47H71.1Zm7.48-3.15a3.24,3.24,0,0,1-1,2.41,3.38,3.38,0,0,1-2.46,1,3.43,3.43,0,0,1-2.48-1,3.22,3.22,0,0,1-1-2.41,3.18,3.18,0,0,1,1-2.4,3.43,3.43,0,0,1,2.48-1,3.38,3.38,0,0,1,2.46,1,3.2,3.2,0,0,1,1,2.4Zm-.85,0a2.42,2.42,0,0,0-.79-1.8,2.49,2.49,0,0,0-1.86-.76,2.55,2.55,0,0,0-1.88.76,2.35,2.35,0,0,0-.79,1.8,2.48,2.48,0,0,0,.77,1.83,2.66,2.66,0,0,0,1.9.74,2.55,2.55,0,0,0,1.86-.74,2.47,2.47,0,0,0,.79-1.83Zm4.79-2.12a2.44,2.44,0,0,0-.66-.34,2,2,0,0,0-.67-.1,1.35,1.35,0,0,0-.79.22.88.88,0,0,0-.38.74,1.58,1.58,0,0,0,.52,1c.61.66.94,1,1,1a2.43,2.43,0,0,1,.54,1.44,1.58,1.58,0,0,1-.1.48,4.42,4.42,0,0,1-.4.84h-1a3.16,3.16,0,0,0,.36-.56,1.63,1.63,0,0,0,.25-.76,1.78,1.78,0,0,0-.52-1.18c-.31-.32-.63-.65-1-1a2,2,0,0,1-.52-1.28,1.68,1.68,0,0,1,.54-1.28,2.14,2.14,0,0,1,1.46-.48,3.33,3.33,0,0,1,.67.06,3,3,0,0,1,.66.26Z" transform="translate(0.07 -0.09)"/><path class="cls-7" d="M79.08,24.27c-9.07,13-67.9-7-78.16,3.93,0,0-.19.2-.19.18V26.87a.5.5,0,0,1,0-.18c3.94-11.48,68.34,9.22,77.5-2.42Z" transform="translate(0.07 -0.09)"/><rect class="cls-8" x="36.15" y="13.81" width="47.2" height="0.34"/><path class="cls-6" d="M55.1,24.35l.27.06a.76.76,0,0,1-.31.46.93.93,0,0,1-.54.16,1,1,0,0,1-.53-.12.69.69,0,0,1-.31-.36,1.08,1.08,0,0,1-.12-.5.91.91,0,0,1,.12-.49,1.22,1.22,0,0,1,.34-.34,1.44,1.44,0,0,1,.5-.1.82.82,0,0,1,.52.14.76.76,0,0,1,.29.39l-.27.06a.49.49,0,0,0-.21-.29.54.54,0,0,0-.33-.1.88.88,0,0,0-.4.1.6.6,0,0,0-.21.27,1.17,1.17,0,0,0-.08.36,1.31,1.31,0,0,0,.08.42.53.53,0,0,0,.25.26.65.65,0,0,0,.35.08.64.64,0,0,0,.38-.12.66.66,0,0,0,.21-.34Zm1.54.48a1.35,1.35,0,0,1-.27.16,1.45,1.45,0,0,1-.29,0,.49.49,0,0,1-.36-.12.29.29,0,0,1-.14-.26.34.34,0,0,1,.06-.2s.08-.08.11-.12a.6.6,0,0,1,.2-.08l.21,0,.46-.06v-.06a.27.27,0,0,0-.08-.2.39.39,0,0,0-.29-.08.4.4,0,0,0-.25.06.34.34,0,0,0-.13.2l-.25,0a.46.46,0,0,1,.11-.22.48.48,0,0,1,.24-.14.76.76,0,0,1,.32-.06.66.66,0,0,1,.31.06.35.35,0,0,1,.17.1.32.32,0,0,1,.08.14.62.62,0,0,1,0,.22v.3a1.75,1.75,0,0,0,0,.4A.23.23,0,0,0,57,25h-.27a.38.38,0,0,1,0-.16Zm0-.52a1.52,1.52,0,0,1-.42.1.54.54,0,0,0-.22,0,.23.23,0,0,0-.09.08.15.15,0,0,0,0,.1.18.18,0,0,0,.08.16.31.31,0,0,0,.21.06.63.63,0,0,0,.27-.06.33.33,0,0,0,.15-.16.36.36,0,0,0,.06-.22Zm.63.68V23.14h.25V25Zm.64-1.57v-.28h.25v.28Zm0,1.57V23.65h.25V25Zm1.59,0v-.16a.5.5,0,0,1-.42.2.64.64,0,0,1-.33-.1.76.76,0,0,1-.23-.24,1,1,0,0,1-.08-.36A.81.81,0,0,1,58.5,24a.7.7,0,0,1,.21-.24.71.71,0,0,1,.35-.1.49.49,0,0,1,.23.06.4.4,0,0,1,.17.14v-.67h.25V25Zm-.79-.66a.54.54,0,0,0,.12.38.37.37,0,0,0,.27.12.4.4,0,0,0,.29-.12.53.53,0,0,0,.11-.36.68.68,0,0,0-.11-.42.4.4,0,0,0-.29-.12.38.38,0,0,0-.29.12.57.57,0,0,0-.1.4Zm2.37.5a1,1,0,0,1-.25.16,1.55,1.55,0,0,1-.29,0,.51.51,0,0,1-.37-.12.3.3,0,0,1-.13-.26.59.59,0,0,1,0-.2.77.77,0,0,1,.13-.12.64.64,0,0,1,.19-.08l.22,0,.44-.06v-.06a.27.27,0,0,0-.06-.2.42.42,0,0,0-.29-.08.51.51,0,0,0-.27.06.28.28,0,0,0-.11.2l-.25,0a.46.46,0,0,1,.11-.22.43.43,0,0,1,.21-.14,1,1,0,0,1,.35-.06.71.71,0,0,1,.31.06.4.4,0,0,1,.17.1.32.32,0,0,1,.08.14s0,.12,0,.22v.7a.39.39,0,0,0,.07.16h-.27a1.56,1.56,0,0,1,0-.16Zm0-.52a1.2,1.2,0,0,1-.41.1.52.52,0,0,0-.21,0,.18.18,0,0,0-.09.08s0,.06,0,.1a.2.2,0,0,0,.07.16.32.32,0,0,0,.22.06.63.63,0,0,0,.27-.06.46.46,0,0,0,.15-.16.36.36,0,0,0,0-.22Zm1.61.68v-.16a.5.5,0,0,1-.42.2.64.64,0,0,1-.33-.1.76.76,0,0,1-.23-.24,1,1,0,0,1-.08-.36.81.81,0,0,1,.08-.38.54.54,0,0,1,.21-.24.71.71,0,0,1,.35-.1.49.49,0,0,1,.23.06.4.4,0,0,1,.17.14v-.67h.25V25Zm-.81-.66a.55.55,0,0,0,.14.38.37.37,0,0,0,.27.12.4.4,0,0,0,.29-.12.53.53,0,0,0,.11-.36.68.68,0,0,0-.11-.42.4.4,0,0,0-.29-.12.38.38,0,0,0-.29.12.56.56,0,0,0-.12.4ZM65,25v-.16a.49.49,0,0,1-.4.2.67.67,0,0,1-.33-.1.76.76,0,0,1-.23-.24.8.8,0,0,1-.07-.36,1,1,0,0,1,.07-.38.54.54,0,0,1,.21-.24.67.67,0,0,1,.33-.1.51.51,0,0,1,.25.06.41.41,0,0,1,.15.14v-.67h.25V25Zm-.78-.66a.54.54,0,0,0,.11.38.42.42,0,0,0,.29.12.38.38,0,0,0,.29-.12.53.53,0,0,0,.11-.36.57.57,0,0,0-.13-.42.38.38,0,0,0-.29-.12.37.37,0,0,0-.27.12.56.56,0,0,0-.11.4Zm2.44.24.25,0a.58.58,0,0,1-.23.32.73.73,0,0,1-.43.12.77.77,0,0,1-.52-.18.76.76,0,0,1-.17-.52.68.68,0,0,1,.19-.52.69.69,0,0,1,.5-.2.68.68,0,0,1,.48.2.67.67,0,0,1,.18.5v.08h-1.1a.48.48,0,0,0,.14.32.44.44,0,0,0,.3.12.49.49,0,0,0,.25-.06.54.54,0,0,0,.16-.2Zm-.83-.38h.83a.78.78,0,0,0-.1-.26.43.43,0,0,0-.31-.12.48.48,0,0,0-.29.1.34.34,0,0,0-.13.28Zm2.59.8-.55-1.34h.25l.32.8c0,.1.06.18.1.28a2.24,2.24,0,0,1,.1-.26l.32-.82h.25L68.66,25Zm1-1.57v-.28h.25v.28Zm0,1.57V23.65h.25V25Zm1.6,0v-.16a.52.52,0,0,1-.43.2.6.6,0,0,1-.32-.1.59.59,0,0,1-.23-.24.68.68,0,0,1-.08-.36.81.81,0,0,1,.08-.38.49.49,0,0,1,.21-.24.62.62,0,0,1,.34-.1.46.46,0,0,1,.23.06.62.62,0,0,1,.18.14v-.67h.25V25Zm-.81-.66a.5.5,0,0,0,.13.38.39.39,0,0,0,.27.12.38.38,0,0,0,.29-.12.49.49,0,0,0,.12-.36.62.62,0,0,0-.12-.42.38.38,0,0,0-.29-.12.36.36,0,0,0-.28.12.56.56,0,0,0-.12.4Zm2.38.5a.67.67,0,0,1-.27.16,1,1,0,0,1-.27,0,.51.51,0,0,1-.36-.12.29.29,0,0,1-.14-.26.59.59,0,0,1,0-.2.87.87,0,0,1,.14-.12.65.65,0,0,1,.17-.08,1.24,1.24,0,0,0,.23,0l.44-.06v-.06a.32.32,0,0,0,0-.2.47.47,0,0,0-.29-.08.49.49,0,0,0-.27.06.29.29,0,0,0-.12.2l-.25,0a.4.4,0,0,1,.12-.22.33.33,0,0,1,.21-.14.91.91,0,0,1,.35-.06.67.67,0,0,1,.3.06.39.39,0,0,1,.18.1.46.46,0,0,1,.07.14v.52c0,.22,0,.34,0,.4A.4.4,0,0,0,73,25h-.27a1.38,1.38,0,0,1-.06-.16Zm0-.52a1.27,1.27,0,0,1-.4.1.48.48,0,0,0-.21,0,.25.25,0,0,0-.12.08.15.15,0,0,0,0,.1.18.18,0,0,0,.08.16.31.31,0,0,0,.21.06.6.6,0,0,0,.27-.06.46.46,0,0,0,.15-.16.36.36,0,0,0,0-.22Z" transform="translate(0.07 -0.09)"/><path class="cls-9" d="M22,.93c6.63,4.39,8.76,15.72,5,21.91a18.72,18.72,0,0,1-4.61-.2,32.29,32.29,0,0,0-3.88-.46A10.56,10.56,0,0,0,15.08,22a19.57,19.57,0,0,1-3.42-7.84c-1.15-5.71.18-10.92,3-13.23Z" transform="translate(0.07 -0.09)"/><path class="cls-10" d="M22.77.93c3,1.93,5.32,6.38,5.7,11.69A16.65,16.65,0,0,1,26,23.18a36.2,36.2,0,0,0-3.9,0,27.75,27.75,0,0,0-7.77-1.26,18.32,18.32,0,0,1-2.57-8.38C11.34,7.89,13.24,3,16.25.93Z" transform="translate(0.07 -0.09)"/><path class="cls-11" d="M21.71.93C25,2.46,27.63,7.07,28,12.64a16.21,16.21,0,0,1-2.19,9.86,44.09,44.09,0,0,0-5.4-.22,33.18,33.18,0,0,0-6-.58,17.68,17.68,0,0,1-2.56-8.2C11.51,7.63,13.7,2.54,17,.93Z" transform="translate(0.07 -0.09)"/><path class="cls-6" d="M16.43,4.68l.09.76-.3,0-.1-.78Zm-.06.78.15,0a.16.16,0,0,1-.13.16c-.1,0-.17-.06-.17-.12Zm.06-.12a6.52,6.52,0,0,0,3,.24l.08.24a6.84,6.84,0,0,1-3.23-.24Zm3,.24a3.89,3.89,0,0,0,2.19-1.22l.25.16a4,4,0,0,1-2.36,1.3Zm2.31-1.14-.12-.08a.17.17,0,0,1,.21,0,.14.14,0,0,1,0,.2Zm.11.1a4.31,4.31,0,0,1-2.71.68V5a3.87,3.87,0,0,0,2.5-.62Zm-2.71.68a16.57,16.57,0,0,1-2.93-.4l.07-.26a16,16,0,0,0,2.86.4Zm-2.9-.52,0,.12c-.08,0-.14-.08-.12-.16a.18.18,0,0,1,.19-.1Z" transform="translate(0.07 -0.09)"/><path class="cls-6" d="M21.67,4.34a.2.2,0,0,1,.21,0,.13.13,0,0,1,0,.2Zm.21.2c-.38.28-.28,1-.17,1.86l-.31,0c-.13-1-.23-1.7.27-2.08ZM21.71,6.4a6.59,6.59,0,0,1-1.29,5.66l-.27-.14a6.37,6.37,0,0,0,1.25-5.5ZM20.29,12l.13.06a.19.19,0,0,1-.23,0,.15.15,0,0,1,0-.18Zm.13.08,0,0-.24-.16v0ZM20.27,12l.11.08a.15.15,0,0,1-.21,0,.11.11,0,0,1,0-.18Zm.11.08s0-.14,0-.08l-.28.06c0-.06,0-.08,0-.14Zm-.15,0,.15,0c0,.08,0,.14-.11.16a.13.13,0,0,1-.17-.1Zm.15,0c0,.08-.09-.08-.07-.08l0,.26c-.12,0-.17,0-.19-.1Zm-.07,0v-.12a.14.14,0,0,1,.15.14.16.16,0,0,1-.17.12Zm0-.12h0l0,.26h0Zm0,.12,0-.12c.09,0,.15.08.13.14s-.08.12-.17.12Zm0-.12.57,0,0,.26-.59,0Zm.57.18V12c.1,0,.16.08.16.16a.16.16,0,0,1-.18.1Zm0-.14L21,12l0,.26,0,0Zm0,.14L21,12a.14.14,0,0,1,.14.14.2.2,0,0,1-.18.12Zm0-.12c.14,0,.19,0,.25.08l-.27.14s0,0,0,0Zm.25.08c0,.06,0,.1,0,.2l-.31-.06s0,0,0,0Zm-.13.16.15,0a.19.19,0,0,1-.19.1c-.08,0-.14-.08-.12-.16Zm.15,0,0,.06-.31,0,0-.06Zm-.17,0,.15,0a.13.13,0,0,1-.17.1.13.13,0,0,1-.14-.14Zm.15,0L20,18l-.31,0,1.19-5.63ZM20,18c0,.08-.1.12-.17.12a.17.17,0,0,1-.14-.16Z" transform="translate(0.07 -0.09)"/><path class="cls-6" d="M19.56,18.41a.15.15,0,0,1-.19-.1c0-.06,0-.14.11-.16Zm-.08-.26a1.67,1.67,0,0,1,1.29.54l-.21.2a1.5,1.5,0,0,0-1-.48Zm1.29.54c.5.4,1.06.81,1.84.3l.2.2c-1,.67-1.66.15-2.25-.3Zm1.84.3a.19.19,0,0,1,.23,0,.12.12,0,0,1,0,.18Z" transform="translate(0.07 -0.09)"/><path class="cls-6" d="M18.52,17.81c0-.06,0-.14.12-.16a.16.16,0,0,1,.19.1Zm.31-.06a1,1,0,0,1-.21,1.06l-.27-.12a.84.84,0,0,0,.17-.88Zm-.21,1.06a1.65,1.65,0,0,0-.18.32l-.28-.1a1.41,1.41,0,0,1,.19-.34Zm-.33.26.15.06a.16.16,0,0,1-.21.06.11.11,0,0,1-.07-.16Zm.15.06v0l-.29-.08v0Zm-.17,0,.16,0a.16.16,0,0,1-.2.08c-.09,0-.13-.1-.09-.16Zm.16,0a.42.42,0,0,0,0,.31l-.29.08a.49.49,0,0,1,0-.47Zm0,.31a.44.44,0,0,0,.23.26l-.18.22a.73.73,0,0,1-.34-.4Zm.13.36.1-.1a.11.11,0,0,1,0,.18.16.16,0,0,1-.21,0Zm.1-.1h0l-.13.24-.06,0Zm0,.12.05-.12c.08,0,.12.12.08.18a.17.17,0,0,1-.21.06Zm.05-.12a1.43,1.43,0,0,0,.89-.1l.11.24a1.6,1.6,0,0,1-1.13.1Zm.89-.1a2.49,2.49,0,0,1,.59-.14v.26a2.2,2.2,0,0,0-.48.12Zm.59,0v-.14c.08,0,.16.06.16.12a.14.14,0,0,1-.16.14Zm0-.14a2.81,2.81,0,0,1,.62.16l-.12.24a2.3,2.3,0,0,0-.53-.14Zm.62.16a1.22,1.22,0,0,0,1.09,0l.16.24a1.62,1.62,0,0,1-1.37,0Zm1.09,0a.21.21,0,0,1,.21.06.13.13,0,0,1-.05.18Z" transform="translate(0.07 -0.09)"/><path class="cls-6" d="M19.27,18.93a.14.14,0,0,1-.15.14.15.15,0,0,1-.16-.14Zm-.31,0a17.84,17.84,0,0,0-.15-2.32l.33,0c.07.78.13,1.56.13,2.34Zm-.15-2.32a22.28,22.28,0,0,0-.37-2.29l.31,0q.24,1.14.39,2.31ZM18.6,14.3l-.16,0c0-.08,0-.14.14-.16a.16.16,0,0,1,.17.12Zm-.16,0a2.24,2.24,0,0,1,1-2.08l.23.18a2,2,0,0,0-.9,1.86Zm1-2.08a4.2,4.2,0,0,0,1.52-2.91h.31a4.37,4.37,0,0,1-1.6,3.09Zm1.52-2.91a.15.15,0,0,1,.16-.14c.09,0,.15.08.15.14Z" transform="translate(0.07 -0.09)"/><path class="cls-6" d="M21.08,7.33a.19.19,0,0,1,.21-.06.14.14,0,0,1,.06.18Zm.27.12c-.25.38-.77.32-1.29.26l0-.26c.42.06.82.1,1-.12Zm-1.29.26A1.87,1.87,0,0,0,19,7.79l-.19-.2a2,2,0,0,1,1.31-.14ZM19,7.79c-.11.08-.11.14-.09.26h-.33a.43.43,0,0,1,.23-.46Zm-.27.26h.18c0,.06-.08.12-.16.12a.13.13,0,0,1-.17-.12Zm.18,0v.06h-.33V8.05Zm-.16.06h.16a.15.15,0,0,1-.16.14.17.17,0,0,1-.17-.14Zm.16,0a14.36,14.36,0,0,1-.1,1.8l-.31,0c0-.62.1-1.26.08-1.78Zm-.1,1.8c-.1,1.17-.21,2.29.17,2.43l-.13.24c-.58-.22-.46-1.44-.35-2.69ZM19,12.34c.08,0,.12.12.08.18a.17.17,0,0,1-.21.06Z" transform="translate(0.07 -0.09)"/><path class="cls-6" d="M18.33,7.69a.17.17,0,0,1-.14-.16.16.16,0,0,1,.18-.1Zm0-.26a.54.54,0,0,1,.4.2l-.27.14a.23.23,0,0,0-.17-.08Zm.4.2a.66.66,0,0,1,.12.42h-.33a.53.53,0,0,0-.06-.28Zm.12.42c0,.06-.08.12-.18.12s-.15-.06-.15-.12Z" transform="translate(0.07 -0.09)"/><polygon class="cls-4" points="81.12 9.48 81.12 9.48 81.12 9.48 81.12 9.48"/><polygon class="cls-1" points="0.07 30 84.07 30 84.07 0 0.07 0 0.07 30 0.07 30"/><path class="cls-4" d="M81.19,22.66c-9.3,13-69.68-7-80.21,3.93a1.45,1.45,0,0,1-.21.18V25.25a.44.44,0,0,1,0-.16c4-11.49,70.16,9.2,79.56-2.43Z" transform="translate(0.07 -0.09)"/></svg>